<?xml version="1.0" standalone="no"?>
<!DOCTYPE svg PUBLIC "-//W3C//DTD SVG 20010904//EN"
 "http://www.w3.org/TR/2001/REC-SVG-20010904/DTD/svg10.dtd">
<svg version="1.0" xmlns="http://www.w3.org/2000/svg"
 width="816.000000pt" height="816.000000pt" viewBox="0 0 816.000000 816.000000"
 preserveAspectRatio="xMidYMid meet">
<metadata>
Created by potrace 1.14, written by Peter Selinger 2001-2017
</metadata>
<g transform="translate(0.000000,816.000000) scale(0.100000,-0.100000)"
fill="#000000" stroke="none">
<path d="M3788 6838 c-229 -21 -435 -139 -576 -330 -24 -32 -40 -58 -37 -58 4
0 0 -7 -9 -15 -15 -15 -71 -152 -80 -196 -3 -13 -8 -35 -12 -49 -4 -14 -8
-319 -9 -679 l-2 -653 41 7 c22 4 52 9 66 12 78 13 199 0 295 -32 106 -36 218
-112 298 -204 26 -30 45 -59 83 -126 10 -16 29 -65 44 -107 l27 -78 12 53 c13
58 70 187 82 187 4 0 10 8 13 18 14 43 172 184 246 219 102 49 209 76 295 76
38 0 140 -15 163 -24 52 -20 49 -56 47 644 -1 358 -5 666 -9 682 -4 17 -12 48
-18 70 -6 22 -12 45 -14 52 -5 27 -86 178 -116 216 -98 127 -250 234 -398 281
-115 37 -270 49 -432 34z"/>
<path d="M3903 4014 c3 -4 0 -22 -8 -40 -8 -19 -12 -34 -10 -34 7 0 -58 -125
-67 -128 -4 -2 -8 -9 -8 -15 0 -7 -16 -29 -35 -50 -19 -21 -35 -41 -35 -45 -1
-9 -91 -80 -139 -109 -70 -44 -154 -77 -222 -89 -82 -15 -279 -7 -310 12 -4 2
-6 -339 -5 -759 2 -756 2 -763 25 -841 58 -208 181 -372 361 -481 36 -22 67
-40 70 -41 3 0 19 -6 35 -13 89 -35 138 -48 210 -56 67 -7 227 -7 299 -1 227
21 454 160 581 356 54 83 98 183 110 247 2 16 8 49 13 74 5 26 9 377 8 780 -1
728 -1 734 -21 732 -40 -4 -60 -9 -70 -15 -18 -11 -257 0 -272 12 -2 2 -6 3
-10 4 -5 1 -14 5 -20 9 -7 5 -13 6 -13 3 0 -12 -117 46 -175 86 -126 87 -216
208 -261 351 -10 31 -22 57 -27 57 -6 0 -8 -3 -4 -6z"/>
</g>
</svg>
